<svg xmlns="http://www.w3.org/2000/svg" width="21" height="21" fill="none">
  <g clip-path="url(#a)">
    <mask id="b" width="21" height="21" x="0" y="0" maskUnits="userSpaceOnUse" style="mask-type:luminance">
      <path fill="#fff" d="M0 0h21v21H0V0Z"/>
    </mask>
    <g mask="url(#b)">
      <path fill="#fff" d="M13.125.875H3.5c-.962 0-1.75.788-1.75 1.75V14c0 .481.394.875.875.875A.878.878 0 0 0 3.5 14V3.5c0-.481.394-.875.875-.875h8.75A.878.878 0 0 0 14 1.75a.878.878 0 0 0-.875-.875Zm3.5 3.5H7c-.963 0-1.75.787-1.75 1.75v12.25c0 .962.787 1.75 1.75 1.75h9.625c.962 0 1.75-.788 1.75-1.75V6.125c0-.963-.788-1.75-1.75-1.75Zm-.875 14H7.875A.878.878 0 0 1 7 17.5V7c0-.481.394-.875.875-.875h7.875c.481 0 .875.394.875.875v10.5a.878.878 0 0 1-.875.875Z"/>
    </g>
  </g>
  <defs>
    <clipPath id="a">
      <path fill="#fff" d="M0 0h21v21H0z"/>
    </clipPath>
  </defs>
</svg>
