<svg xmlns="http://www.w3.org/2000/svg" width="24" height="24" fill="none">
  <g fill="#fff" clip-path="url(#a)">
    <path d="M12.001 6.834a5.171 5.171 0 0 0-5.165 5.165A5.171 5.171 0 0 0 12 17.165 5.171 5.171 0 0 0 17.167 12 5.171 5.171 0 0 0 12 6.833Z"/>
    <path d="M17.42 0H6.58A6.587 6.587 0 0 0 0 6.58v10.84A6.587 6.587 0 0 0 6.58 24h10.84A6.587 6.587 0 0 0 24 17.42V6.58A6.587 6.587 0 0 0 17.42 0ZM12 18.583A6.59 6.59 0 0 1 5.417 12 6.59 6.59 0 0 1 12 5.417 6.59 6.59 0 0 1 18.583 12 6.59 6.59 0 0 1 12 18.583Zm6.977-11.56c-1.103 0-2-.897-2-2 0-1.102.897-2 2-2 1.102 0 2 .898 2 2 0 1.103-.898 2-2 2Z"/>
  </g>
  <defs>
    <clipPath id="a">
      <path fill="#fff" d="M0 0h24v24H0z"/>
    </clipPath>
  </defs>
</svg>
