<svg xmlns="http://www.w3.org/2000/svg" width="24" height="24" viewBox="0 0 24 24" fill="none">
  <g fill="#fff" clip-path="url(#a)">
    <path d="M23.997 24h.006v-8.803c0-4.306-.927-7.623-5.96-7.623-2.42 0-4.045 1.328-4.708 2.587h-.07V7.976H8.492V24h4.97v-7.934c0-2.089.396-4.109 2.983-4.109 2.55 0 2.587 2.384 2.587 4.243V24h4.965ZM.398 7.977h4.976V24H.398V7.977ZM2.882 0A2.883 2.883 0 0 0 0 2.882c0 1.591 1.291 2.909 2.882 2.909 1.591 0 2.882-1.318 2.882-2.909A2.884 2.884 0 0 0 2.882 0Z"/>
  </g>
  <defs>
    <clipPath id="a">
      <path fill="#fff" d="M0 0h24v24H0z"/>
    </clipPath>
  </defs>
</svg>
