<svg xmlns="http://www.w3.org/2000/svg" width="21" height="21" fill="none">
  <path fill="#161616" fill-rule="evenodd" d="M10.5 1.094c-3.258 0-5.906 2.672-5.906 5.968 0 1.117.491 2.502 1.207 3.883 1.576 3.043 4.201 6.107 4.201 6.107a.656.656 0 0 0 .996 0s2.625-3.064 4.2-6.107c.716-1.381 1.208-2.766 1.208-3.883 0-3.296-2.648-5.968-5.906-5.968Zm0 3.5a2.407 2.407 0 0 0 0 4.812 2.407 2.407 0 0 0 0-4.812Z" clip-rule="evenodd"/>
  <path fill="#161616" fill-rule="evenodd" d="M14.686 15.205c.711.214 1.298.478 1.703.788.262.2.455.394.455.632 0 .14-.08.267-.192.394-.185.21-.461.397-.802.572-1.206.617-3.155 1.003-5.35 1.003-2.194 0-4.144-.386-5.35-1.003-.341-.175-.617-.363-.802-.572-.112-.127-.192-.254-.192-.394 0-.238.193-.433.455-.632.405-.31.992-.574 1.703-.788a.657.657 0 0 0-.378-1.257c-1.083.326-1.925.773-2.43 1.268-.445.433-.662.918-.662 1.41 0 .613.347 1.226 1.053 1.737 1.24.896 3.728 1.544 6.603 1.544 2.875 0 5.364-.648 6.603-1.544.706-.511 1.053-1.123 1.053-1.738 0-.491-.217-.976-.661-1.41-.506-.494-1.348-.94-2.431-1.267a.657.657 0 0 0-.378 1.257Z" clip-rule="evenodd"/>
</svg>
