<svg xmlns="http://www.w3.org/2000/svg" width="41" height="50" fill="none">
  <path fill="#fff" d="M14.744 50c-.51 0-.984-.09-1.424-.27a3.498 3.498 0 0 1-1.14-.756 2.825 2.825 0 0 1-.68-1.116l1.611-.372c.065.232.183.432.355.6.176.168.38.298.611.39.236.092.48.138.73.138.324 0 .62-.068.888-.204.27-.136.482-.318.64-.546.157-.232.236-.488.236-.768s-.081-.534-.243-.762a1.616 1.616 0 0 0-.64-.546 1.925 1.925 0 0 0-.882-.204c-.384 0-.704.06-.958.18-.25.12-.442.248-.577.384l-1.43-.396.305-4.572h5.432v1.356h-4.536l.625-.51-.222 3.18-.306-.324c.26-.204.56-.356.903-.456.343-.1.674-.15.994-.15.625 0 1.178.124 1.66.372.486.244.866.578 1.139 1.002.278.424.417.906.417 1.446 0 .54-.162 1.03-.486 1.47a3.458 3.458 0 0 1-1.286 1.044c-.527.26-1.106.39-1.736.39ZM19.779 49.82v-1.482h1.716v1.482h-1.716ZM26.902 50c-.709 0-1.334-.13-1.876-.39a3.103 3.103 0 0 1-1.27-1.098c-.302-.468-.452-1.008-.452-1.62v-2.784c0-.612.15-1.152.451-1.62a3.06 3.06 0 0 1 1.271-1.092c.542-.264 1.167-.396 1.876-.396.708 0 1.331.132 1.868.396.542.26.966.624 1.271 1.092.306.468.459 1.008.459 1.62v2.784c0 .612-.153 1.152-.459 1.62-.305.468-.729.834-1.27 1.098-.538.26-1.16.39-1.87.39Zm0-1.374c.352 0 .671-.072.958-.216a1.81 1.81 0 0 0 .681-.588c.167-.248.25-.524.25-.828V44c0-.308-.083-.584-.25-.828a1.743 1.743 0 0 0-.68-.588 2.06 2.06 0 0 0-.96-.222 2.06 2.06 0 0 0-.958.222c-.287.144-.514.34-.68.588-.167.244-.25.52-.25.828v2.994c0 .304.083.58.25.828.166.244.393.44.68.588.287.144.607.216.959.216ZM35.128 25.337V22H5.872v3.337H.5l1.974 4.831L.5 35h9.89v-3.336h20.22V35h9.89l-1.974-4.832 1.974-4.831h-5.372ZM15.77 10.472c.305.293.444.715.371 1.129l-.68 3.905c-.18 1.042.928 1.836 1.877 1.345l3.56-1.845a1.31 1.31 0 0 1 1.203 0l3.559 1.845c.949.492 2.058-.303 1.876-1.344l-.68-3.906a1.265 1.265 0 0 1 .373-1.129l2.879-2.766c.768-.737.344-2.023-.717-2.174l-3.978-.57a1.291 1.291 0 0 1-.974-.698L22.659.711c-.473-.948-1.844-.948-2.319 0l-1.779 3.553a1.291 1.291 0 0 1-.974.698l-3.978.57c-1.061.152-1.485 1.437-.717 2.174l2.88 2.766h-.002Z"/>
  <path fill="#fff" d="m28.761 11.987 1.92 1.79c.203.189.296.462.248.73l-.453 2.527c-.121.674.618 1.188 1.25.87L34.1 16.71a.897.897 0 0 1 .802 0l2.372 1.193c.633.319 1.372-.195 1.251-.87l-.453-2.526a.803.803 0 0 1 .248-.73l1.92-1.79c.511-.478.229-1.309-.478-1.408l-2.652-.369a.862.862 0 0 1-.65-.45l-1.186-2.3c-.316-.613-1.23-.613-1.546 0l-1.186 2.3a.86.86 0 0 1-.65.45l-2.652.37c-.707.097-.99.93-.478 1.407ZM2.863 13.776c.22.19.32.463.268.73l-.49 2.528c-.132.674.67 1.188 1.354.87l2.57-1.194c.272-.126.598-.126.87 0l2.57 1.193c.685.319 1.486-.195 1.355-.87l-.491-2.526a.767.767 0 0 1 .268-.73l2.08-1.79c.554-.478.248-1.309-.518-1.408l-2.873-.369a.934.934 0 0 1-.703-.45l-1.286-2.3c-.342-.613-1.332-.613-1.674 0l-1.286 2.3a.934.934 0 0 1-.703.45l-2.873.37c-.766.097-1.072.93-.518 1.407l2.08 1.79Z"/>
</svg>
