<svg xmlns="http://www.w3.org/2000/svg" width="90" height="29" fill="none">
  <path fill="#fff" d="M58.279 6.976c-3.956.02-7.178 3.355-7.16 7.509.019 4.153 3.273 7.457 7.228 7.439 3.956-.019 7.178-3.356 7.16-7.507-.02-4.152-3.273-7.459-7.23-7.44l.002-.001Zm.054 11.902a4.17 4.17 0 0 1-2.996-1.254 4.425 4.425 0 0 1-1.25-3.062 4.37 4.37 0 0 1 1.221-3.074 4.203 4.203 0 0 1 2.985-1.284 4.145 4.145 0 0 1 2.995 1.254 4.424 4.424 0 0 1 1.252 3.062c.011 2.309-1.957 4.346-4.207 4.358Zm15.97-8.382c-2.069.01-3.68 1.771-3.67 3.894l.033 7.104-3.147.015-.064-14.118 3.148-.015.01 2.214s1.338-2.22 4.037-2.233l.9-.005.015 3.137-1.262.007Zm-31.4-2.985 2.384 9.678 2.474-9.701 3.147-.015-3.894 14.146-3.057.014-2.472-9.86-2.383 9.883-3.058.014-4.11-14.099 3.056-.014 2.742 9.676 2.205-9.7 2.967-.022Zm41.845 6.258c2.15-1.301 3.67-3.708 3.658-6.476l-3.148.015c.012 2.4-1.87 4.347-4.117 4.355l-.45.002L80.64.5l-3.147.015.096 20.945 3.146-.014-.03-6.643.36-.002c.36-.001.72.182.812.458l4.434 6.16L90 21.402l-5.251-7.633ZM24.648 7.138c-3.416.017-6.014 2.336-6.985 6.031-1.631-2.576-2.904-5.522-3.634-8.01l-3.596.018.045 9.78a3.556 3.556 0 0 1-.99 2.484 3.376 3.376 0 0 1-2.411 1.039 3.375 3.375 0 0 1-2.421-1.016 3.554 3.554 0 0 1-1.013-2.474l-.045-9.78L0 5.227l.045 9.78c.019 4.058 3.179 7.275 7.046 7.255 3.868-.02 7.001-3.264 6.983-7.323l-.008-1.66c.725 1.471 1.631 3.035 2.628 4.415L14.495 28.5l3.686-.017 1.585-7.851c1.443.917 3.056 1.462 4.952 1.452 3.956-.02 7.18-3.355 7.159-7.6a7.502 7.502 0 0 0-2.138-5.202 7.124 7.124 0 0 0-5.09-2.145v.001Zm.051 11.165c-1.438.007-2.879-.632-4.052-1.642l.352-1.477v-.085c.265-1.57 1.059-4.25 3.757-4.262a3.562 3.562 0 0 1 2.542 1.069 3.751 3.751 0 0 1 1.073 2.595c-.081 2.123-1.781 3.792-3.67 3.8l-.002.002Z"/>
</svg>
