<svg xmlns="http://www.w3.org/2000/svg" width="21" height="21" fill="none" viewBox="0 0 16 16">
  <defs>
    <linearGradient id="paint0_linear" x1="0" y1="21" x2="21" y2="0" gradientUnits="userSpaceOnUse">
      <stop offset="0.0001" stop-color="#15BCDF" />
      <stop offset="0.615" stop-color="#0DDC7A" />
      <stop offset="1" stop-color="#15BCDF" />
    </linearGradient>
  </defs>
  <path fill="url(#paint0_linear)" d="M11.993.503c-.39.006-.763.162-1.039.436l-1.15 1.15 3.127 3.127 1.15-1.15a1.512 1.512 0 0 0 0-2.125L13.076.939a1.492 1.492 0 0 0-1.083-.436ZM9.096 2.797 1.937 9.956a1.51 1.51 0 0 0-.44 1.06v2.004a.5.5 0 0 0 .504.503l2.003-.004c.397 0 .776-.156 1.057-.437l7.163-7.158-3.128-3.127ZM1.95 14.524l-.001.001c-.652.048-.602 1.021.052 1.002h12.018c.683.015.683-1.017 0-1.002H2a.508.508 0 0 0-.051 0Z"/>
</svg>
