<svg xmlns="http://www.w3.org/2000/svg" width="56" height="50" fill="none">
  <path fill="#161616" d="M19.94 45.176s11.46.056 15.242 3.218l-1.976.705s-5.363-3.81-14.706-3.105c.48-.423 1.44-.818 1.44-.818Z"/>
  <path fill="#161616" d="M36.055 45.176s-11.46.056-15.242 3.218l1.975.705s5.363-3.81 14.707-3.105c-.48-.423-1.44-.818-1.44-.818Z"/>
  <path fill="#161616" fill-rule="evenodd" d="M10.281 5.714c2.4-1.552 4.884-3.867 9.146-5.447-3.105.028-8.016 1.975-9.146 5.447ZM13.045 6.194c-.508.226-.875.367-1.299.48-.79.198-1.44.254-2.117.48-.536.17-.988.452-1.355.762a4.338 4.338 0 0 0-.79.847c-.395.565-.734 1.468-.734 2.145.31-.31.593-.564.903-.79.48-.339.932-.593 1.412-.79a8.01 8.01 0 0 0 .988-.452c1.326-.678 2.088-1.637 2.992-2.682Z" clip-rule="evenodd"/>
  <path fill="#161616" fill-rule="evenodd" d="M6.723 10.937c0-.988.903-2.654 1.44-3.303.367-.451.649-.96.903-1.496.451-.931.847-2.004.96-2.823-.565.34-1.158.706-1.779 1.186-1.355 1.1-2.117 2.286-1.92 3.895.057.65.057 2.004.396 2.54ZM9.124 11.105c-.452.311-.79.509-1.158.678-.734.31-1.355.48-1.947.819-.48.253-.847.592-1.158.987-.282.34-.451.65-.592.96-.255.621-.396 1.58-.226 2.23.225-.367.451-.65.705-.931a5.169 5.169 0 0 1 1.214-1.017c.31-.197.593-.395.875-.592 1.101-.875 1.637-1.976 2.287-3.134Z" clip-rule="evenodd"/>
  <path fill="#161616" fill-rule="evenodd" d="M4.021 16.808c-.226-.96.283-2.767.678-3.472a6.347 6.347 0 0 0 .536-1.61c.226-.987.367-2.088.31-2.907-.48.452-.96.875-1.496 1.468-1.072 1.299-1.552 2.597-1.016 4.15.198.592.537 1.89.988 2.37ZM6.776 16.018c-.367.451-.65.762-.988 1.044-.65.536-1.27.875-1.778 1.383-.424.424-.678.875-.875 1.355-.17.452-.254.819-.283 1.185-.056.734.17 1.779.565 2.456a9.71 9.71 0 0 1 .395-1.185 6.12 6.12 0 0 1 .932-1.412c.254-.31.508-.592.705-.875.903-1.242 1.073-2.54 1.327-3.951Z" clip-rule="evenodd"/>
  <path fill="#161616" fill-rule="evenodd" d="M3.42 23.47c-.592-.96-.705-3.02-.564-3.868.085-.62.057-1.242 0-1.863-.113-1.129-.395-2.342-.762-3.19-.339.594-.706 1.186-1.044 1.948-.678 1.694-.706 3.19.451 4.686.452.593 1.27 1.891 1.92 2.287ZM5.679 21.805c-.254.508-.452.875-.734 1.213-.508.65-1.044 1.101-1.44 1.722-.31.508-.48.988-.536 1.525-.056.48-.056.875.028 1.241.141.763.593 1.75 1.186 2.343 0-.48.028-.875.113-1.27.113-.593.31-1.073.564-1.58.198-.367.339-.678.48-1.017.593-1.383.424-2.71.339-4.177Z" clip-rule="evenodd"/>
  <path fill="#161616" fill-rule="evenodd" d="M4.185 29.878c-.847-.847-1.468-2.88-1.525-3.783-.056-.62-.254-1.242-.48-1.863-.395-1.1-.96-2.258-1.552-3.048-.198.677-.423 1.326-.565 2.145-.225 1.835.113 3.33 1.638 4.63.592.507 1.75 1.636 2.484 1.919ZM5.8 27.337a6.777 6.777 0 0 1-.282 1.468c-.283.818-.65 1.44-.847 2.173a3.55 3.55 0 0 0 .028 1.722c.113.508.282.903.48 1.27.423.734 1.27 1.637 2.089 2.09-.17-.509-.282-.904-.367-1.328a5.365 5.365 0 0 1 0-1.778c.056-.423.113-.79.113-1.157.113-1.666-.565-2.992-1.214-4.46Z" clip-rule="evenodd"/>
  <path fill="#161616" fill-rule="evenodd" d="M7.29 36.059c-1.185-.65-2.596-2.569-2.991-3.472-.283-.621-.734-1.214-1.186-1.779-.819-1.016-1.835-2.06-2.738-2.71.028.735.085 1.468.226 2.372.423 1.92 1.326 3.387 3.387 4.29.819.339 2.428 1.214 3.303 1.299ZM8.024 32.84c.169.65.254 1.13.282 1.638.028.96-.141 1.722-.028 2.569.084.677.338 1.27.705 1.806.339.508.65.875 1.016 1.214.762.65 2.033 1.383 3.077 1.609-.395-.48-.677-.875-.903-1.299-.367-.649-.565-1.27-.706-1.89-.113-.48-.226-.876-.338-1.271-.593-1.778-1.835-2.992-3.105-4.375Z" clip-rule="evenodd"/>
  <path fill="#161616" fill-rule="evenodd" d="M13.104 41.704c-1.524-.338-3.783-1.976-4.573-2.794-.564-.593-1.242-1.073-1.976-1.553-1.27-.846-2.794-1.665-4.008-2.088.339.79.677 1.552 1.185 2.455 1.214 1.92 2.767 3.218 5.335 3.585.988.113 3.077.565 4.037.395ZM12.656 38.007c.48.593.762 1.044.988 1.552.424.96.621 1.75 1.101 2.569.395.65.932 1.157 1.553 1.609a8.488 8.488 0 0 0 1.609.903c1.072.424 2.738.762 3.923.678-.621-.367-1.1-.678-1.524-1.045a7.381 7.381 0 0 1-1.58-1.693c-.311-.424-.622-.819-.932-1.186-1.355-1.552-3.19-2.4-5.138-3.387Z" clip-rule="evenodd"/>
  <path fill="#161616" fill-rule="evenodd" d="M21.882 45.317c-1.75.113-4.855-.818-6.04-1.411-.848-.423-1.78-.706-2.767-.96-1.722-.451-3.67-.818-5.137-.875.705.678 1.383 1.355 2.314 2.09 2.117 1.552 4.319 2.37 7.198 1.947 1.1-.141 3.472-.31 4.432-.79ZM45.708 5.714c-2.4-1.524-4.911-3.867-9.145-5.447 3.104.028 8.016 1.975 9.145 5.447ZM42.938 6.194c.508.226.874.367 1.298.48.79.198 1.44.254 2.117.48.536.17.988.452 1.355.762.339.282.593.565.79.847.395.565.734 1.468.734 2.145a7.544 7.544 0 0 0-.903-.79 6.571 6.571 0 0 0-1.44-.79 8.004 8.004 0 0 1-.988-.452c-1.298-.678-2.06-1.637-2.964-2.682Z" clip-rule="evenodd"/>
  <path fill="#161616" fill-rule="evenodd" d="M49.256 10.937c0-.988-.904-2.654-1.44-3.303-.367-.451-.65-.96-.903-1.496-.452-.931-.847-2.004-.96-2.823.565.34 1.157.706 1.778 1.186 1.355 1.1 2.117 2.286 1.92 3.895-.057.65-.057 2.004-.395 2.54ZM46.875 11.105c.452.311.79.509 1.157.678.734.31 1.355.48 1.948.819.48.253.847.592 1.157.987.283.34.452.65.593.96.254.621.395 1.58.226 2.23a6.202 6.202 0 0 0-.706-.931 5.168 5.168 0 0 0-1.214-1.017c-.31-.197-.592-.395-.875-.592-1.1-.875-1.637-1.976-2.286-3.134Z" clip-rule="evenodd"/>
  <path fill="#161616" fill-rule="evenodd" d="M51.99 16.808c.226-.96-.282-2.767-.678-3.472a6.344 6.344 0 0 1-.536-1.61c-.226-.987-.367-2.088-.31-2.907.48.452.96.875 1.496 1.468 1.072 1.299 1.552 2.597 1.016 4.15-.198.592-.537 1.89-.988 2.37ZM49.203 16.018c.367.451.65.762.988 1.044.65.536 1.27.875 1.778 1.383.424.424.678.875.875 1.355.17.452.255.819.283 1.185.056.734-.17 1.779-.565 2.456a9.715 9.715 0 0 0-.395-1.185 6.123 6.123 0 0 0-.931-1.412c-.255-.31-.509-.592-.706-.875-.904-1.242-1.073-2.54-1.327-3.951Z" clip-rule="evenodd"/>
  <path fill="#161616" fill-rule="evenodd" d="M52.563 23.47c.592-.96.705-3.02.564-3.868-.085-.62-.056-1.242 0-1.863.113-1.129.395-2.342.762-3.19.339.594.706 1.186 1.045 1.948.677 1.694.705 3.19-.452 4.686-.452.593-1.27 1.891-1.92 2.287ZM50.308 21.805c.254.508.451.875.733 1.213.509.65 1.045 1.101 1.44 1.722.31.508.48.988.536 1.525.057.48.057.875-.028 1.241-.14.763-.593 1.75-1.185 2.343 0-.48-.029-.875-.113-1.27-.113-.593-.31-1.073-.565-1.58a10.787 10.787 0 0 1-.48-1.017c-.592-1.383-.423-2.71-.338-4.177Z" clip-rule="evenodd"/>
  <path fill="#161616" fill-rule="evenodd" d="M51.805 29.878c.846-.847 1.468-2.88 1.524-3.783.056-.62.254-1.242.48-1.863.395-1.1.96-2.258 1.552-3.048.198.677.424 1.326.565 2.145.254 1.806-.085 3.302-1.637 4.6-.593.537-1.75 1.666-2.484 1.949ZM50.202 27.337c.057.593.141 1.016.282 1.468.283.818.65 1.44.847 2.173a3.549 3.549 0 0 1-.028 1.722 4.77 4.77 0 0 1-.48 1.27c-.423.734-1.27 1.637-2.089 2.09.17-.509.283-.904.367-1.328a5.365 5.365 0 0 0 0-1.778c-.056-.423-.113-.79-.113-1.157-.112-1.666.565-2.992 1.214-4.46Z" clip-rule="evenodd"/>
  <path fill="#161616" fill-rule="evenodd" d="M48.703 36.059c1.186-.65 2.597-2.569 2.992-3.472.282-.621.734-1.214 1.186-1.779.818-1.016 1.834-2.06 2.738-2.71a19.566 19.566 0 0 1-.226 2.372c-.424 1.92-1.327 3.387-3.387 4.29-.819.339-2.428 1.214-3.303 1.299ZM47.974 32.84c-.169.65-.253 1.13-.282 1.638-.028.96.141 1.722.029 2.569a4.049 4.049 0 0 1-.706 1.806 6.41 6.41 0 0 1-1.016 1.214c-.763.65-2.033 1.383-3.077 1.609.395-.48.677-.875.903-1.299.367-.649.565-1.27.706-1.89.113-.48.226-.876.339-1.271.592-1.778 1.834-2.992 3.105-4.375Z" clip-rule="evenodd"/>
  <path fill="#161616" fill-rule="evenodd" d="M42.89 41.704c1.525-.338 3.783-1.976 4.573-2.794.565-.593 1.242-1.073 1.976-1.553 1.27-.846 2.795-1.665 4.008-2.088-.338.79-.677 1.552-1.185 2.455-1.214 1.92-2.766 3.218-5.335 3.585-.988.113-3.077.565-4.036.395ZM43.346 38.007c-.48.593-.762 1.044-.988 1.552-.424.96-.621 1.75-1.101 2.569-.395.65-.932 1.157-1.553 1.609a8.488 8.488 0 0 1-1.609.903c-1.072.424-2.738.762-3.923.678.62-.367 1.1-.678 1.524-1.045a7.381 7.381 0 0 0 1.58-1.693c.311-.424.622-.819.932-1.186 1.355-1.552 3.19-2.4 5.138-3.387Z" clip-rule="evenodd"/>
  <path fill="#161616" fill-rule="evenodd" d="M34.11 45.317c1.75.113 4.854-.818 6.04-1.411.847-.423 1.778-.706 2.766-.96 1.722-.451 3.67-.818 5.138-.875-.706.678-1.384 1.355-2.315 2.09-2.117 1.552-4.319 2.37-7.198 1.947-1.1-.141-3.472-.31-4.432-.79Z" clip-rule="evenodd"/>
  <path fill="#161616" d="M35.108 24.228c-1.196 0-2.317-.494-3.335-1.299l.248-1.136.01-.042c.222-1.21.922-3.24 3.077-3.24 1.615 0 2.93 1.284 2.93 2.861-.006 1.573-1.32 2.856-2.93 2.856Zm0-8.614c-2.753 0-4.886 1.746-5.753 4.617-1.325-1.94-2.327-4.27-2.914-6.231h-2.963v7.525c0 1.483-1.239 2.692-2.758 2.692-1.518 0-2.757-1.21-2.757-2.692V14H15v7.525c-.01 3.082 2.559 5.61 5.715 5.61 3.156 0 5.726-2.528 5.726-5.61v-1.262c.576 1.173 1.282 2.356 2.138 3.408L26.764 32h3.032l1.315-6.042c1.152.72 2.477 1.173 3.996 1.173 3.248 0 5.893-2.598 5.893-5.769 0-3.166-2.645-5.748-5.892-5.748Z"/>
</svg>
