<svg xmlns="http://www.w3.org/2000/svg" width="73" height="32" fill="none">
  <g fill="#fff" clip-path="url(#a)">
    <path d="M14.784 32c-4.8 0-8.464-1.013-10.991-3.04C1.263 26.934 0 24.208 0 20.784c0-.597.08-1.288.242-2.074L4.493 0h8.455L8.745 18.521c-.097.22-.145.66-.145 1.32.032 1.414.587 2.616 1.667 3.605 1.079.99 2.585 1.485 4.517 1.485 4.058 0 6.57-2.136 7.537-6.41L26.523 0h8.407l-4.203 18.663c-.967 4.179-2.698 7.446-5.194 9.803C23.037 30.822 19.453 32 14.783 32ZM65.898 31.434h-8.31l4.686-20.783-12.85 20.783h-3.672l-3.43-20.783-4.687 20.783h-8.31L36.428 0h11.256l2.802 17.39L61.163 0H73l-7.102 31.434Z"/>
  </g>
  <defs>
    <clipPath id="a">
      <path fill="#fff" d="M0 0h73v32H0z"/>
    </clipPath>
  </defs>
</svg>
