<svg xmlns="http://www.w3.org/2000/svg" width="336" height="670" fill="none">
  <path stroke="#E2E2E2" d="M32 .5h137.826c4.798 0 8.358 0 11.202.294 2.833.292 4.912.87 6.753 2.002 1.841 1.132 3.296 2.726 4.835 5.122 1.545 2.405 3.153 5.582 5.319 9.863l5.238 10.358c2.156 4.262 3.791 7.493 5.37 9.952 1.586 2.468 3.138 4.195 5.152 5.433 2.014 1.239 4.256 1.844 7.174 2.145 2.907.3 6.528.299 11.305.299H304c7.556 0 13.173.002 17.489.582 4.302.578 7.236 1.723 9.471 3.958 2.235 2.235 3.381 5.169 3.959 9.47.58 4.316.581 9.933.581 17.49v560.079c0 7.546-.001 13.156-.58 17.467-.577 4.296-1.721 7.228-3.951 9.462-2.231 2.234-5.161 3.381-9.456 3.964-4.31.586-9.92.596-17.466.607l-272 .405h-.001c-7.566.011-13.19.018-17.513-.556-4.307-.573-7.246-1.716-9.485-3.952-2.239-2.235-3.387-5.172-3.966-9.479C.501 651.144.5 645.519.5 637.952V32c0-7.556 0-13.173.581-17.49.578-4.3 1.724-7.235 3.959-9.47 2.235-2.235 5.17-3.38 9.47-3.959C18.828.501 24.445.5 32 .5Z"/>
</svg>
