<svg xmlns="http://www.w3.org/2000/svg" width="23" height="23" fill="none">
  <g fill="#A2A2A2" clip-path="url(#a)">
    <path d="M3.37 6.738A3.37 3.37 0 1 0 3.37 0a3.37 3.37 0 0 0 0 6.738ZM11.502 14.87a3.37 3.37 0 1 0 0-6.74 3.37 3.37 0 0 0 0 6.74ZM19.63 23a3.37 3.37 0 1 0 0-6.738 3.37 3.37 0 0 0 0 6.738ZM7.906 4.717a5.157 5.157 0 0 0 0-2.696h13.747a1.349 1.349 0 0 1 0 2.695H7.906ZM6.783 11.5c0-.471.09-.918.22-1.348H1.348a1.349 1.349 0 0 0 0 2.695h5.655a4.65 4.65 0 0 1-.22-1.347ZM21.652 10.152h-5.656c.13.43.22.877.22 1.348 0 .471-.09.918-.22 1.348h5.656a1.349 1.349 0 0 0 0-2.695ZM1.348 20.979A1.349 1.349 0 0 1 0 19.63c0-.743.604-1.348 1.348-1.348h13.746a5.156 5.156 0 0 0 0 2.695H1.348Z"/>
  </g>
  <defs>
    <clipPath id="a">
      <path fill="#fff" d="M0 0h23v23H0z"/>
    </clipPath>
  </defs>
</svg>
