<svg xmlns="http://www.w3.org/2000/svg" width="12" height="14" fill="none">
  <path fill="#161616" fill-rule="evenodd" d="m4.913 9.026.583.584a.44.44 0 0 0 .646-.03l.972-1.167a.437.437 0 0 0-.672-.56l-.666.799-.244-.244a.438.438 0 1 0-.62.618Z" clip-rule="evenodd"/>
  <path fill="#161616" fill-rule="evenodd" d="M11.98 5.242H.02v6.27a1.607 1.607 0 0 0 1.605 1.605h8.75a1.607 1.607 0 0 0 1.604-1.604V5.242Zm-5.98.6a2.772 2.772 0 0 0 0 5.541c1.53 0 2.77-1.242 2.77-2.77C8.77 7.082 7.53 5.84 6 5.84ZM.02 4.366h11.96V3.362a1.607 1.607 0 0 0-1.605-1.604H9.062v1.458a.438.438 0 0 1-.874 0V1.758H3.811v1.458a.438.438 0 0 1-.874 0V1.758H1.625A1.607 1.607 0 0 0 .021 3.362v1.005ZM8.188 1.758h.874v-.437a.438.438 0 0 0-.874 0v.437ZM2.938 1.758h.874v-.437a.438.438 0 0 0-.874 0v.437Z" clip-rule="evenodd"/>
</svg>
